<svg width="236" height="69" viewBox="0 0 236 69" fill="none" xmlns="http://www.w3.org/2000/svg">
<path fill-rule="evenodd" clip-rule="evenodd" d="M21 68.3C25.9 68.3 30.4 65.9 32.5 63.4V67.2H45.4V0H32.6V24.9C30.5 22.4 26 20 21 20C7.5 20 0 30.9 0 44.2C0 57.5 7.5 68.3 21 68.3ZM23.8 31.1C27.5 31.1 30.8 33.2 32.5 36.5V51.6C30.9 55 27.5 57.1 23.8 57C16.8 57 12.7 51.5 12.7 44.1C12.7 36.7 16.9 31.1 23.8 31.1Z" fill="#111111"/>
<rect x="79.4" width="12.8" height="67.2" fill="#111111"/>
<path fill-rule="evenodd" clip-rule="evenodd" d="M126.6 64.7V67.1H138.8V37.7C138.8 26.6 131.7 19.9 119.4 19.9C108.9 19.9 101.3 26.3 100 34.7H112.2C113.2 32.1 115.4 30.4 119 30.4C124.1 30.4 126.5 33.6 126.5 37.5V40.9C124.7 39.5 120 38.2 116 38.2C105.9 38.2 98.1 44.2 98.1 53C98.1 62.6 106 68 115.3 68C120.4 68 125 66.3 126.6 64.7ZM118.2 47.3C122 47.3 125.5 48.8 126.6 51.3V54.7C125.4 57.2 121.9 58.7 118.2 58.7C114.1 58.7 110 56.9 110 53C110 49.1 114.2 47.3 118.2 47.3Z" fill="#111111"/>
<path fill-rule="evenodd" clip-rule="evenodd" d="M146.7 67.2H159.6V63.4C161.7 65.8 166.2 68.2 171.2 68.2C184.7 68.2 192.2 57.4 192.2 44.1C192.2 30.8 184.6 19.9 171.2 19.9C166.2 19.9 161.7 22.3 159.6 24.8V0H146.7V67.2ZM168.3 57C164.6 57.1 161.2 55 159.6 51.7V36.5C161.3 33.2 164.6 31.1 168.3 31.1C175.3 31.1 179.4 36.8 179.4 44.1C179.4 51.4 175.2 57 168.3 57Z" fill="#111111"/>
<path d="M207.9 53.5C208.9 56.8 211.8 58.6 215.7 58.6C219.6 58.6 222.2 57.1 222.2 54.1C222.2 52 220.8 51 217.6 50.2L208.3 48.1C201.3 46.4 196.3 42.8 196.3 35.1C196.3 26.1 204.4 20.1 214.7 20.1C226.4 20.1 232.8 25.7 234.3 34.4H222.1C221.3 31.8 219.1 29.9 214.9 29.9C211.8 29.9 208.8 31.4 208.8 34.2C208.8 36.1 210 37.1 212.9 37.8L222.4 40C230.5 42 234.7 46.4 234.7 53.4C234.7 62.8 226.5 68.4 215.8 68.4C204.5 68.4 196.6 63 195.2 53.6L207.9 53.5Z" fill="#111111"/>
<path fill-rule="evenodd" clip-rule="evenodd" d="M61.9007 67.3C56.1011 67.3 53.4 62.6 53.4 56.8C53.4 51 60.1011 46.3 65.9007 46.3C71.6989 46.3 74.4 51 74.4 56.8C74.4 62.6 67.6989 67.3 61.9007 67.3Z" fill="#5533FF"/>
</svg>
